# xmcd
# 
# Track frame offsets:
#     150
#     31245
#     47664
#     68921
#     92922
#     116904
#     130973
#     151614
#     172251
#     190890
#     231700
#     248433
#     269215
#     295638
#     325129
# 
# Disc length: 4561
# 
# Revision: 2
# Processed by: cddbd v1.5.2PL0 Copyright (c) Steve Scherf et al.
# Submitted via: fre:ac v1.1beta1pre5
# 
DISCID=de11cf0f
DTITLE=Chet Baker- Bill Evans - Alone Together
DYEAR=2011
DGENRE=Jazz
TTITLE0=Alone Together
TTITLE1=How HighThe Moon
TTITLE2=It Never Entered My Mind
TTITLE3='Tis Autumn
TTITLE4=If You Could See Me Now
TTITLE5=September Song
TTITLE6=You'd Be So Nice To Come Home To
TTITLE7=Time On My Hands
TTITLE8=Time On My Hands
TTITLE9=You And The Night And The Music
TTITLE10=I Could Have Danced All Night
TTITLE11=Thank HeavenFor Little Girls
TTITLE12=I Tak To The Trees
TTITLE13=Show Me
TTITLE14=Alone Together
EXTD=YEAR: 2011
EXTT0=
EXTT1=
EXTT2=
EXTT3=
EXTT4=
EXTT5=
EXTT6=
EXTT7=
EXTT8=
EXTT9=
EXTT10=
EXTT11=
EXTT12=
EXTT13=
EXTT14=
PLAYORDER=
